<svg width="173" height="554" viewBox="0 0 173 554" fill="none" xmlns="http://www.w3.org/2000/svg">
<path d="M151.77 118.753C185.288 72.6965 123.839 30.3575 88.9246 14.945C-1.22665 -19.5064 -3.05664 13.5851 7.29727 34.4373V509.051C7.29727 572.152 74.7181 555.289 108.428 538.97C139.49 517.513 188.611 469.523 136.601 449.215C84.5904 428.906 106.261 399.351 123.598 387.111C143.824 372.001 156.334 335.48 170.203 311.908C184.072 288.336 142.843 250.075 123.598 231.173C104.353 212.271 118.253 164.809 151.77 118.753Z" fill="#FFE0C1"/>
<path d="M140.77 118.753C174.288 72.6965 112.839 30.3575 77.9246 14.945C-12.2266 -19.5064 -14.0566 13.5851 -3.70273 34.4373V509.051C-3.70273 572.152 63.7181 555.289 97.4285 538.97C128.49 517.513 177.611 469.523 125.601 449.215C73.5904 428.906 95.2614 399.351 112.598 387.111C132.824 372.001 145.334 335.48 159.203 311.908C173.072 288.336 131.843 250.075 112.598 231.173C93.3529 212.271 107.253 164.809 140.77 118.753Z" fill="white"/>
<path d="M130.77 118.753C164.288 72.6965 102.839 30.3575 67.9246 14.945C-22.2267 -19.5064 -24.0566 13.5851 -13.7027 34.4373V509.051C-13.7027 572.152 53.7181 555.289 87.4285 538.97C118.49 517.513 167.611 469.523 115.601 449.215C63.5904 428.906 85.2614 399.351 102.598 387.111C122.824 372.001 135.334 335.48 149.203 311.908C163.072 288.336 121.843 250.075 102.598 231.173C83.3529 212.271 97.2526 164.809 130.77 118.753Z" fill="#E4FFCC"/>
</svg>
