<svg width="66" height="7" viewBox="0 0 66 7" fill="none" xmlns="http://www.w3.org/2000/svg">
<path d="M14.8581 6.33846C23.0641 6.33846 29.7163 4.98754 29.7163 3.32109C29.7163 1.65463 23.0641 0.303711 14.8581 0.303711C6.65223 0.303711 0 1.65463 0 3.32109C0 4.98754 6.65223 6.33846 14.8581 6.33846Z" fill="#3C2003"/>
<path d="M63.9961 5.78545C63.9752 5.78545 63.9547 5.785 63.9333 5.7836C61.9928 5.68062 61.1223 4.469 60.4866 3.64883C59.9149 2.91161 59.6516 2.52202 58.8929 2.52202C58.8897 2.52202 58.8869 2.52202 58.8841 2.52202C58.2419 2.52202 58.1044 2.80489 57.6804 3.53978C57.2097 4.35529 56.4292 5.76215 54.2468 5.64844C52.3544 5.54965 51.4839 4.55193 50.8487 3.80771C50.2905 3.15391 49.9768 2.79788 49.0187 2.79788C48.9959 2.79788 48.9731 2.80396 48.9507 2.80443C47.877 2.82307 47.4772 3.26716 46.8723 3.93588C46.2278 4.647 45.3303 5.61303 43.6187 5.57808C41.8329 5.53241 41.0146 4.34457 40.4726 3.55702C39.9237 2.75875 39.7196 2.51315 39.0071 2.57094C38.3099 2.63199 38.0895 2.92605 37.616 3.64323C37.0391 4.51699 36.1751 5.82694 33.8623 5.72069C31.6591 5.60931 30.9386 4.2425 30.4614 3.33798C30.0444 2.54857 29.9036 2.31092 29.0867 2.33142C28.0084 2.35845 27.5899 2.7746 26.9566 3.40511C26.191 4.16703 25.238 5.11534 23.2081 5.21367C20.4507 5.34788 19.3304 3.67213 18.7284 2.77274C18.664 2.67674 18.5839 2.55697 18.5224 2.47355C18.0606 2.30905 17.7348 1.86215 17.7483 1.34489C17.7651 0.702264 18.2922 0.191512 18.9432 0.210618C19.8333 0.233919 20.2941 0.922677 20.6646 1.47629C21.1739 2.23728 21.6581 2.95867 23.0953 2.88597C24.2305 2.83098 24.6606 2.40224 25.313 1.7531C26.0749 0.994905 27.0228 0.0521774 29.0285 0.00184878C29.0746 0.000450761 29.1198 0 29.1641 0C31.3361 0 32.0477 1.35049 32.5231 2.25082C32.9322 3.02718 33.1018 3.34872 33.9803 3.39299C34.9617 3.44379 35.1667 3.12504 35.6723 2.35893C36.1849 1.58303 36.9589 0.410545 38.8062 0.250239C40.899 0.0680309 41.7989 1.37286 42.3926 2.23637C42.9117 2.99083 43.1261 3.2364 43.6783 3.25038C44.3032 3.27275 44.5712 3.00994 45.1453 2.37477C45.855 1.59048 46.8271 0.516786 48.9101 0.479971C48.9451 0.479505 48.9796 0.479061 49.0145 0.479061C51.0524 0.479061 51.9573 1.53921 52.6214 2.31697C53.1554 2.94235 53.4775 3.31983 54.3694 3.36643C55.1141 3.41209 55.2455 3.09941 55.663 2.37477C56.143 1.54295 56.8686 0.191988 58.8771 0.191988C58.8822 0.191988 58.8868 0.191988 58.892 0.191988C60.824 0.191988 61.6931 1.40266 62.3283 2.22143C62.9038 2.96425 63.2179 3.36782 64.0567 3.41256C64.6989 3.44611 65.1924 4.01744 65.1579 4.66006C65.1258 5.28124 64.6113 5.78545 63.9961 5.78545Z" fill="#3C2003"/>
</svg>
