<svg width="64" height="24" viewBox="0 0 64 24" fill="none" xmlns="http://www.w3.org/2000/svg">
<path d="M15.9919 22.7446C15.9919 22.7446 1.61661 14.3639 3.3129 -0.000244141C3.3129 -0.000244141 20.2052 6.75935 20.2052 21.9685L15.9919 22.7446Z" fill="#F7C914"/>
<path d="M14.3731 23.0294C22.3112 23.0294 28.7463 21.7226 28.7463 20.1105C28.7463 18.4985 22.3112 17.1917 14.3731 17.1917C6.43508 17.1917 0 18.4985 0 20.1105C0 21.7226 6.43508 23.0294 14.3731 23.0294Z" fill="#3C2003"/>
<path d="M61.9068 22.4955C61.8865 22.4955 61.8667 22.4951 61.8459 22.4937C59.9688 22.3941 59.1267 21.2221 58.5118 20.4287C57.9587 19.7155 57.704 19.3386 56.9701 19.3386C56.967 19.3386 56.9643 19.3386 56.9616 19.3386C56.3404 19.3386 56.2074 19.6123 55.7972 20.3232C55.3419 21.1121 54.5868 22.473 52.4757 22.363C50.6451 22.2674 49.803 21.3023 49.1885 20.5823C48.6485 19.9499 48.3451 19.6055 47.4183 19.6055C47.3962 19.6055 47.3741 19.6114 47.3525 19.6118C46.3138 19.6298 45.927 20.0594 45.3419 20.7063C44.7185 21.3942 43.8502 22.3287 42.1945 22.2949C40.467 22.2507 39.6754 21.1017 39.1511 20.3398C38.6201 19.5676 38.4227 19.33 37.7334 19.3859C37.059 19.445 36.8458 19.7295 36.3878 20.4232C35.8297 21.2685 34.9939 22.5357 32.7566 22.4329C30.6253 22.3251 29.9283 21.0029 29.4667 20.1279C29.0633 19.3643 28.9271 19.1344 28.1369 19.1542C27.0937 19.1804 26.6889 19.583 26.0763 20.1929C25.3357 20.9299 24.4138 21.8473 22.4501 21.9424C19.7828 22.0722 18.6991 20.4512 18.1166 19.5812C18.0544 19.4883 17.9769 19.3724 17.9174 19.2917C17.4706 19.1326 17.1555 18.7003 17.1686 18.1999C17.1848 17.5783 17.6947 17.0842 18.3245 17.1027C19.1855 17.1252 19.6313 17.7915 19.9897 18.327C20.4824 19.0632 20.9508 19.761 22.341 19.6907C23.4392 19.6375 23.8553 19.2228 24.4864 18.5948C25.2234 17.8614 26.1403 16.9494 28.0805 16.9007C28.1252 16.8994 28.1689 16.8989 28.2117 16.8989C30.3129 16.8989 31.0012 18.2053 31.461 19.0763C31.8568 19.8273 32.0209 20.1383 32.8707 20.1812C33.8201 20.2303 34.0184 19.922 34.5075 19.1809C35.0034 18.4303 35.7521 17.2961 37.5391 17.141C39.5636 16.9647 40.4341 18.227 41.0084 19.0623C41.5106 19.7921 41.718 20.0297 42.2522 20.0432C42.8567 20.0648 43.1159 19.8106 43.6713 19.1962C44.3578 18.4375 45.2982 17.3988 47.3132 17.3632C47.347 17.3628 47.3804 17.3623 47.4142 17.3623C49.3855 17.3623 50.261 18.3879 50.9033 19.1403C51.42 19.7452 51.7315 20.1104 52.5943 20.1555C53.3147 20.1996 53.4418 19.8972 53.8457 19.1962C54.31 18.3915 55.0119 17.0846 56.9548 17.0846C56.9598 17.0846 56.9643 17.0846 56.9692 17.0846C58.8382 17.0846 59.679 18.2558 60.2934 19.0478C60.8501 19.7664 61.154 20.1568 61.9654 20.2001C62.5866 20.2325 63.064 20.7852 63.0306 21.4069C62.9995 22.0078 62.5018 22.4955 61.9068 22.4955Z" fill="#3C2003"/>
</svg>
