<svg width="61" height="28" viewBox="0 0 61 28" fill="none" xmlns="http://www.w3.org/2000/svg">
<path d="M13.8068 22.9166C13.8068 22.9166 12.3462 8.25138 23.2878 0C23.2878 0 22.1505 17.3636 15.4559 23.0518L13.8068 22.9166Z" fill="#8DC73F"/>
<path d="M13.7434 24.987C13.7434 24.987 1.34165 17.0259 1.66795 3.32495C1.66795 3.32495 14.5725 14.999 14.8738 23.778L13.7434 24.987Z" fill="#8DC73F"/>
<path d="M13.6889 27.3899C21.2491 27.3899 27.3778 26.1453 27.3778 24.61C27.3778 23.0747 21.2491 21.8301 13.6889 21.8301C6.12875 21.8301 0 23.0747 0 24.61C0 26.1453 6.12875 27.3899 13.6889 27.3899Z" fill="#3C2003"/>
<path d="M58.9599 26.8805C58.9406 26.8805 58.9217 26.8801 58.902 26.8788C57.1142 26.7839 56.3122 25.6676 55.7266 24.912C55.1998 24.2328 54.9572 23.8738 54.2583 23.8738C54.2553 23.8738 54.2527 23.8738 54.2501 23.8738C53.6585 23.8738 53.5318 24.1345 53.1411 24.8115C52.7075 25.5629 51.9884 26.859 49.9778 26.7542C48.2343 26.6632 47.4323 25.744 46.8471 25.0584C46.3328 24.456 46.0438 24.128 45.1611 24.128C45.1401 24.128 45.119 24.1336 45.0984 24.134C44.1092 24.1512 43.7409 24.5604 43.1836 25.1764C42.5898 25.8316 41.7629 26.7216 40.186 26.6894C38.5408 26.6473 37.7868 25.553 37.2875 24.8274C36.7818 24.092 36.5937 23.8657 35.9373 23.9189C35.295 23.9752 35.0919 24.2461 34.6557 24.9068C34.1242 25.7118 33.3282 26.9187 31.1974 26.8208C29.1675 26.7182 28.5038 25.4589 28.0641 24.6256C27.6799 23.8983 27.5502 23.6794 26.7976 23.6983C25.8041 23.7232 25.4186 24.1066 24.8351 24.6874C24.1297 25.3894 23.2517 26.2631 21.3815 26.3537C18.8412 26.4773 17.8091 24.9335 17.2544 24.1048C17.1951 24.0164 17.1212 23.906 17.0646 23.8292C16.6391 23.6776 16.339 23.2659 16.3514 22.7893C16.3669 22.1973 16.8525 21.7267 17.4523 21.7443C18.2723 21.7658 18.6969 22.4004 19.0382 22.9104C19.5075 23.6115 19.9536 24.2761 21.2776 24.2092C22.3235 24.1585 22.7198 23.7635 23.3209 23.1654C24.0228 22.4669 24.8961 21.5984 26.7439 21.552C26.7864 21.5507 26.8281 21.5503 26.8689 21.5503C28.87 21.5503 29.5256 22.7945 29.9635 23.624C30.3405 24.3393 30.4968 24.6355 31.306 24.6763C32.2102 24.7231 32.3991 24.4294 32.865 23.7236C33.3372 23.0087 34.0503 21.9285 35.7522 21.7808C37.6804 21.613 38.5094 22.8151 39.0564 23.6107C39.5347 24.3058 39.7322 24.532 40.2409 24.5449C40.8167 24.5655 41.0635 24.3234 41.5925 23.7382C42.2463 23.0156 43.1419 22.0264 45.0611 21.9925C45.0933 21.9921 45.125 21.9917 45.1572 21.9917C47.0347 21.9917 47.8685 22.9684 48.4803 23.6849C48.9723 24.2611 49.269 24.6089 50.0907 24.6518C50.7768 24.6939 50.8979 24.4058 51.2826 23.7382C51.7248 22.9718 52.3932 21.7272 54.2437 21.7272C54.2484 21.7272 54.2527 21.7272 54.2574 21.7272C56.0374 21.7272 56.8381 22.8426 57.4233 23.5969C57.9536 24.2813 58.2429 24.6531 59.0157 24.6943C59.6073 24.7252 60.062 25.2516 60.0303 25.8436C60.0006 26.4159 59.5266 26.8805 58.9599 26.8805Z" fill="#3C2003"/>
</svg>
