<svg width="54" height="43" viewBox="0 0 54 43" fill="none" xmlns="http://www.w3.org/2000/svg">
<path d="M11.2109 39.5054C11.2109 39.5054 2.72484 12.5533 10.6038 0C10.6038 0 16.2344 25.4582 13.6725 38.7786L11.2109 39.5054Z" fill="#8DC73F"/>
<path d="M11.8183 39.1834C11.8183 39.1834 11.4296 16.5626 20.3311 8.71558C20.3311 8.71558 18.8678 29.5408 13.8738 39.1851L11.8183 39.1834Z" fill="#8DC73F"/>
<path d="M16.3245 38.8383C16.3245 38.8383 15.1437 26.9823 23.9894 20.3115C23.9894 20.3115 23.0699 34.349 17.6577 38.9476L16.3245 38.8383Z" fill="#8DC73F"/>
<path d="M9.76744 40.5125C9.76744 40.5125 -0.258675 34.0764 0.00511549 23C0.00511549 23 10.4377 32.4378 10.6813 39.5351L9.76744 40.5125Z" fill="#8DC73F"/>
<path d="M13.3675 42.6192C19.9961 42.6192 25.3697 41.5279 25.3697 40.1818C25.3697 38.8356 19.9961 37.7444 13.3675 37.7444C6.73891 37.7444 1.36536 38.8356 1.36536 40.1818C1.36536 41.5279 6.73891 42.6192 13.3675 42.6192Z" fill="#3C2003"/>
<path d="M53.0602 42.1724C53.0433 42.1724 53.0267 42.1721 53.0094 42.1709C51.4419 42.0877 50.7387 41.109 50.2253 40.4465C49.7634 39.851 49.5507 39.5363 48.9379 39.5363C48.9353 39.5363 48.933 39.5363 48.9307 39.5363C48.412 39.5363 48.301 39.7648 47.9584 40.3584C47.5782 41.0172 46.9477 42.1536 45.1849 42.0617C43.6562 41.9819 42.953 41.176 42.4399 40.5748C41.989 40.0467 41.7356 39.7591 40.9617 39.7591C40.9432 39.7591 40.9248 39.764 40.9067 39.7644C40.0394 39.7794 39.7165 40.1382 39.2278 40.6784C38.7072 41.2528 37.9822 42.0331 36.5996 42.0049C35.1571 41.968 34.4961 41.0085 34.0583 40.3723C33.6149 39.7275 33.45 39.5291 32.8744 39.5758C32.3113 39.6251 32.1332 39.8626 31.7508 40.442C31.2847 41.1478 30.5868 42.2059 28.7186 42.1201C26.9388 42.0301 26.3569 40.926 25.9714 40.1954C25.6345 39.5577 25.5208 39.3657 24.8609 39.3823C23.9899 39.4041 23.6519 39.7403 23.1403 40.2496C22.5218 40.8651 21.752 41.6311 20.1123 41.7105C17.8849 41.8189 16.98 40.4653 16.4936 39.7388C16.4417 39.6613 16.3769 39.5645 16.3272 39.4971C15.9542 39.3642 15.6911 39.0032 15.702 38.5854C15.7155 38.0663 16.1413 37.6537 16.6672 37.6692C17.3862 37.688 17.7584 38.2443 18.0577 38.6915C18.4691 39.3063 18.8602 39.889 20.0212 39.8303C20.9382 39.7858 21.2856 39.4395 21.8126 38.9151C22.4281 38.3027 23.1937 37.5412 24.8139 37.5005C24.8512 37.4994 24.8877 37.499 24.9234 37.499C26.678 37.499 27.2528 38.5899 27.6368 39.3172C27.9673 39.9443 28.1043 40.2041 28.8139 40.2398C29.6066 40.2809 29.7723 40.0234 30.1807 39.4045C30.5948 38.7778 31.22 37.8307 32.7122 37.7012C34.4027 37.554 35.1296 38.608 35.6092 39.3055C36.0285 39.915 36.2017 40.1133 36.6478 40.1246C37.1526 40.1427 37.369 39.9304 37.8328 39.4173C38.4061 38.7838 39.1913 37.9165 40.874 37.8867C40.9022 37.8864 40.9301 37.886 40.9583 37.886C42.6044 37.886 43.3355 38.7424 43.8719 39.3706C44.3033 39.8758 44.5634 40.1807 45.2839 40.2184C45.8854 40.2553 45.9916 40.0027 46.3289 39.4173C46.7166 38.7454 47.3027 37.6541 48.9251 37.6541C48.9292 37.6541 48.933 37.6541 48.9371 37.6541C50.4978 37.6541 51.1999 38.6321 51.713 39.2935C52.1778 39.8935 52.4316 40.2195 53.1091 40.2556C53.6279 40.2827 54.0265 40.7442 53.9987 41.2633C53.9727 41.7651 53.5571 42.1724 53.0602 42.1724Z" fill="#3C2003"/>
</svg>
