<svg width="53" height="55" viewBox="0 0 53 55" fill="none" xmlns="http://www.w3.org/2000/svg">
<path d="M52.1011 54.4078C52.0849 54.4078 52.0691 54.4074 52.0525 54.4064C50.5532 54.3268 49.8807 53.3906 49.3895 52.757C48.9478 52.1874 48.7443 51.8863 48.1582 51.8863C48.1557 51.8863 48.1535 51.8863 48.1513 51.8863C47.6552 51.8863 47.549 52.1049 47.2213 52.6727C46.8577 53.3028 46.2546 54.3898 44.5685 54.3019C43.1063 54.2256 42.4337 53.4547 41.943 52.8797C41.5116 52.3746 41.2693 52.0995 40.529 52.0995C40.5114 52.0995 40.4938 52.1042 40.4765 52.1045C39.6469 52.1189 39.338 52.4621 38.8706 52.9787C38.3727 53.5282 37.6792 54.2746 36.3568 54.2476C34.977 54.2123 34.3448 53.2945 33.926 52.686C33.5019 52.0692 33.3442 51.8795 32.7937 51.9241C32.2551 51.9713 32.0847 52.1985 31.7189 52.7526C31.2732 53.4277 30.6056 54.4398 28.8187 54.3577C27.1164 54.2717 26.5597 53.2156 26.1911 52.5168C25.8688 51.9069 25.7601 51.7232 25.1289 51.7391C24.2957 51.76 23.9724 52.0815 23.4831 52.5686C22.8915 53.1573 22.1552 53.89 20.5868 53.966C18.4564 54.0697 17.5909 52.775 17.1257 52.0801C17.076 52.0059 17.0141 51.9133 16.9665 51.8489C16.6097 51.7218 16.358 51.3765 16.3685 50.9768C16.3814 50.4803 16.7887 50.0857 17.2917 50.1005C17.9794 50.1185 18.3354 50.6506 18.6217 51.0784C19.0152 51.6663 19.3893 52.2237 20.4997 52.1675C21.3768 52.1251 21.7091 51.7938 22.2132 51.2922C22.8019 50.7064 23.5342 49.9781 25.0839 49.9392C25.1195 49.9381 25.1545 49.9377 25.1887 49.9377C26.8669 49.9377 27.4167 50.9812 27.7839 51.6768C28.1001 52.2766 28.2311 52.5251 28.9098 52.5593C29.6681 52.5985 29.8265 52.3523 30.2172 51.7603C30.6132 51.1608 31.2113 50.2549 32.6385 50.1311C34.2555 49.9903 34.9507 50.9985 35.4094 51.6656C35.8105 52.2486 35.9762 52.4383 36.4028 52.4491C36.8857 52.4664 37.0927 52.2633 37.5363 51.7726C38.0847 51.1666 38.8357 50.337 40.4451 50.3086C40.4721 50.3082 40.4988 50.3079 40.5258 50.3079C42.1003 50.3079 42.7995 51.127 43.3126 51.7279C43.7252 52.2111 43.974 52.5028 44.6632 52.5388C45.2385 52.574 45.3401 52.3325 45.6627 51.7726C46.0335 51.1299 46.5941 50.0861 48.1459 50.0861C48.1499 50.0861 48.1535 50.0861 48.1574 50.0861C49.6502 50.0861 50.3217 51.0215 50.8125 51.6541C51.2571 52.228 51.4998 52.5398 52.1479 52.5744C52.6441 52.6003 53.0254 53.0418 52.9987 53.5383C52.9739 54.0182 52.5764 54.4078 52.1011 54.4078Z" fill="#3C2003"/>
<path d="M14.4028 52.6616C14.4028 52.6616 12.957 36.7925 23.7879 27.8638C23.7879 27.8638 22.6621 46.6527 16.0352 52.8079L14.4028 52.6616Z" fill="#8DC73F"/>
<path d="M11.9596 53.0457C11.9596 53.0457 -0.316731 44.4311 0.00626359 29.6055C0.00626359 29.6055 12.7803 42.2378 13.0786 51.7375L11.9596 53.0457Z" fill="#8DC73F"/>
<path d="M11.2844 50.7025C11.2844 50.7025 10.8085 20.4251 21.7078 9.92188C21.7078 9.92188 19.9161 37.7961 13.8013 50.7049L11.2844 50.7025Z" fill="#8DC73F"/>
<path d="M14.0689 17.2443C8.61508 23.543 11.1285 40.8646 13.4009 53.9869L11.9097 34.7408C11.6258 32.1163 11.3945 24.4259 13.614 19.8687C15.3184 16.3694 21.7387 9.66242 24.2952 6.74634C23.1588 7.62116 19.5227 10.9455 14.0689 17.2443Z" fill="#BA8A2A"/>
<path d="M22.9825 7.82212C22.7712 7.8006 22.582 8.11213 22.5138 8.27058L22.5775 8.31841L22.9975 7.94768C23.0806 7.91479 23.1939 7.84364 22.9825 7.82212Z" fill="#BA8A2A"/>
<path d="M22.966 7.92227C23.72 6.62073 25.8008 4.29927 28.0924 5.42574C27.5328 6.49208 25.7241 8.48426 22.966 7.92227Z" fill="#BA8A2A"/>
<path d="M22.9902 7.88543C23.9375 5.85239 26.6348 4.39037 28.0599 5.40356C27.4726 6.44917 24.9598 7.85512 22.9902 7.88543Z" fill="#FFD683"/>
<path d="M22.9912 7.88418C23.7471 6.60092 26.1862 4.6407 28.039 5.44294C27.4692 6.48822 25.2906 8.11526 22.9912 7.88418Z" fill="#D9A834"/>
<path d="M24.5791 6.08408C24.3677 6.06256 24.1786 6.37409 24.1104 6.53255L24.1741 6.58037L24.594 6.20964C24.6771 6.17675 24.7905 6.1056 24.5791 6.08408Z" fill="#BA8A2A"/>
<path d="M24.5625 6.18423C25.3164 4.88269 27.3972 2.56124 29.6888 3.6877C29.1293 4.75404 27.3206 6.74623 24.5625 6.18423Z" fill="#BA8A2A"/>
<path d="M24.5866 6.14617C25.5339 4.11313 28.2312 2.65111 29.6564 3.6643C29.069 4.70991 26.5562 6.11586 24.5866 6.14617Z" fill="#FFD683"/>
<path d="M24.5877 6.1459C25.3436 4.86263 27.7826 2.90242 29.6354 3.70466C29.0656 4.74994 26.8871 6.37698 24.5877 6.1459Z" fill="#D9A834"/>
<path d="M24.599 5.48549C24.6097 5.71725 24.3169 5.91059 24.1692 5.97829L24.1282 5.9067L24.4849 5.46385C24.5185 5.37449 24.5884 5.25373 24.599 5.48549Z" fill="#BA8A2A"/>
<path d="M24.5061 5.4995C25.7278 4.73147 27.9381 2.55772 27.0061 0.00699253C26.0077 0.572748 24.1099 2.46331 24.5061 5.4995Z" fill="#BA8A2A"/>
<path d="M24.5421 5.47533C26.4406 4.52726 27.8916 1.64364 27.0263 0.0440322C26.0456 0.64099 24.6537 3.32548 24.5421 5.47533Z" fill="#FFD683"/>
<path d="M24.5415 5.47382C25.7465 4.70291 27.6419 2.12251 26.9876 0.0648574C26.008 0.642654 24.4282 2.95269 24.5415 5.47382Z" fill="#D9A834"/>
<path d="M19.797 11.3065C19.5856 11.285 19.3965 11.5965 19.3283 11.755L19.392 11.8028L19.8119 11.4321C19.895 11.3992 20.0084 11.328 19.797 11.3065Z" fill="#BA8A2A"/>
<path d="M19.7805 11.4069C20.5344 10.1054 22.6153 7.78389 24.9069 8.91036C24.3473 9.9767 22.5386 11.9689 19.7805 11.4069Z" fill="#BA8A2A"/>
<path d="M19.8046 11.3688C20.752 9.33579 23.4493 7.87377 24.8744 8.88695C24.2871 9.93257 21.7743 11.3385 19.8046 11.3688Z" fill="#FFD683"/>
<path d="M19.8057 11.3686C20.5616 10.0853 23.0006 8.12507 24.8534 8.92731C24.2836 9.9726 22.1051 11.5996 19.8057 11.3686Z" fill="#D9A834"/>
<path d="M18.3487 12.3417C18.1892 12.1885 17.8687 12.3191 17.7284 12.4035L17.7542 12.4831L18.2933 12.4528C18.3782 12.4796 18.5082 12.4948 18.3487 12.3417Z" fill="#BA8A2A"/>
<path d="M18.281 12.4128C19.5907 11.8439 22.5222 11.3019 23.7711 13.6853C22.7451 14.1887 20.2107 14.639 18.281 12.4128Z" fill="#BA8A2A"/>
<path d="M18.3214 12.398C20.1807 11.3613 23.1491 11.9108 23.7578 13.646C22.7205 14.1148 19.9315 13.6385 18.3214 12.398Z" fill="#FFD683"/>
<path d="M18.322 12.3987C19.6234 11.8458 22.6506 11.8262 23.7186 13.6654C22.6957 14.1453 20.0584 14.0626 18.322 12.3987Z" fill="#D9A834"/>
<path d="M18.3504 14.0807C18.1909 13.9275 17.8704 14.0581 17.7301 14.1425L17.7559 14.2221L18.295 14.1919C18.3799 14.2186 18.5099 14.2338 18.3504 14.0807Z" fill="#BA8A2A"/>
<path d="M18.2826 14.1508C19.5923 13.5819 22.5238 13.0399 23.7726 15.4233C22.7467 15.9268 20.2123 16.3771 18.2826 14.1508Z" fill="#BA8A2A"/>
<path d="M18.322 14.1358C20.1813 13.0991 23.1498 13.6485 23.7584 15.3837C22.7211 15.8526 19.9321 15.3763 18.322 14.1358Z" fill="#FFD683"/>
<path d="M18.3226 14.1367C19.624 13.5838 22.6512 13.5643 23.7193 15.4034C22.6964 15.8833 20.059 15.8006 18.3226 14.1367Z" fill="#D9A834"/>
<path d="M16.7562 15.8258C16.5967 15.6726 16.2762 15.8032 16.1359 15.8876L16.1617 15.9672L16.7007 15.937C16.7857 15.9637 16.9156 15.979 16.7562 15.8258Z" fill="#BA8A2A"/>
<path d="M16.6885 15.8959C17.9982 15.327 20.9297 14.785 22.1785 17.1684C21.1526 17.6719 18.6182 18.1222 16.6885 15.8959Z" fill="#BA8A2A"/>
<path d="M16.7285 15.8809C18.5878 14.8442 21.5563 15.3937 22.1649 17.1289C21.1276 17.5977 18.3386 17.1214 16.7285 15.8809Z" fill="#FFD683"/>
<path d="M16.7291 15.8831C18.0305 15.3302 21.0577 15.3106 22.1257 17.1498C21.1028 17.6296 18.4655 17.5469 16.7291 15.8831Z" fill="#D9A834"/>
<path d="M15.1634 17.5614C15.0039 17.4082 14.6834 17.5388 14.5431 17.6232L14.5689 17.7028L15.108 17.6726C15.1929 17.6993 15.3229 17.7146 15.1634 17.5614Z" fill="#BA8A2A"/>
<path d="M15.0956 17.6315C16.4053 17.0626 19.3368 16.5206 20.5856 18.904C19.5597 19.4075 17.0253 19.8578 15.0956 17.6315Z" fill="#BA8A2A"/>
<path d="M15.135 17.6165C16.9943 16.5798 19.9627 17.1293 20.5714 18.8645C19.5341 19.3333 16.7451 18.857 15.135 17.6165Z" fill="#FFD683"/>
<path d="M15.1356 17.6187C16.437 17.0658 19.4642 17.0462 20.5322 18.8854C19.5093 19.3652 16.872 19.2825 15.1356 17.6187Z" fill="#D9A834"/>
<path d="M13.5706 19.3075C13.4112 19.1543 13.0906 19.2849 12.9503 19.3693L12.9761 19.4489L13.5152 19.4187C13.6001 19.4454 13.7301 19.4607 13.5706 19.3075Z" fill="#BA8A2A"/>
<path d="M13.5028 19.3788C14.8125 18.8099 17.744 18.268 18.9929 20.6513C17.9669 21.1548 15.4325 21.6051 13.5028 19.3788Z" fill="#BA8A2A"/>
<path d="M13.5422 19.3638C15.4015 18.3272 18.37 18.8766 18.9786 20.6118C17.9413 21.0806 15.1523 20.6043 13.5422 19.3638Z" fill="#FFD683"/>
<path d="M13.5428 19.3633C14.8442 18.8104 17.8715 18.7908 18.9395 20.63C17.9166 21.1099 15.2792 21.0272 13.5428 19.3633Z" fill="#D9A834"/>
<path d="M13.5902 21.5006C13.4671 21.2876 13.1116 21.3237 12.9492 21.3683L12.9556 21.4608L13.5069 21.6006C13.5859 21.656 13.7133 21.7135 13.5902 21.5006Z" fill="#BA8A2A"/>
<path d="M13.5039 21.5536C14.9653 21.3689 18.0559 21.7298 18.7279 24.6505C17.5689 24.8563 14.9015 24.5251 13.5039 21.5536Z" fill="#BA8A2A"/>
<path d="M13.5479 21.55C15.679 21.0455 18.5378 22.5733 18.7238 24.6039C17.5619 24.7695 14.8661 23.3763 13.5479 21.55Z" fill="#FFD683"/>
<path d="M13.549 21.55C14.9981 21.3797 18.0565 22.324 18.6803 24.6111C17.5302 24.7929 14.8903 23.8646 13.549 21.55Z" fill="#D9A834"/>
<path d="M11.998 24.984C11.8749 24.771 11.5194 24.8071 11.3571 24.8517L11.3635 24.9442L11.9147 25.084C11.9938 25.1394 12.1211 25.1969 11.998 24.984Z" fill="#BA8A2A"/>
<path d="M11.9116 25.037C13.373 24.8523 16.4637 25.2132 17.1356 28.1339C15.9766 28.3397 13.3092 28.0085 11.9116 25.037Z" fill="#BA8A2A"/>
<path d="M11.956 25.0337C14.0871 24.5292 16.9458 26.0569 17.1319 28.0875C15.9699 28.2531 13.2742 26.8599 11.956 25.0337Z" fill="#FFD683"/>
<path d="M11.9571 25.0334C13.4062 24.8631 16.4646 25.8074 17.0884 28.0945C15.9383 28.2763 13.2983 27.348 11.9571 25.0334Z" fill="#D9A834"/>
<path d="M13.5789 21.0521C13.4195 20.8989 13.0989 21.0295 12.9586 21.114L12.9844 21.1936L13.5235 21.1633C13.6084 21.1901 13.7384 21.2053 13.5789 21.0521Z" fill="#BA8A2A"/>
<path d="M13.5111 21.122C14.8208 20.5531 17.7523 20.0111 19.0012 22.3945C17.9752 22.8979 15.4408 23.3483 13.5111 21.122Z" fill="#BA8A2A"/>
<path d="M13.5515 21.107C15.4108 20.0703 18.3793 20.6197 18.9879 22.3549C17.9506 22.8238 15.1616 22.3475 13.5515 21.107Z" fill="#FFD683"/>
<path d="M13.5521 21.1067C14.8535 20.5538 17.8807 20.5342 18.9487 22.3734C17.9258 22.8533 15.2885 22.7706 13.5521 21.1067Z" fill="#D9A834"/>
<path d="M13.58 22.7926C13.4206 22.6394 13.1 22.77 12.9597 22.8544L12.9855 22.934L13.5246 22.9038C13.6095 22.9305 13.7395 22.9458 13.58 22.7926Z" fill="#BA8A2A"/>
<path d="M13.5122 22.8627C14.8219 22.2938 17.7534 21.7518 19.0023 24.1352C17.9763 24.6387 15.4419 25.089 13.5122 22.8627Z" fill="#BA8A2A"/>
<path d="M13.5516 22.8477C15.4109 21.811 18.3794 22.3605 18.988 24.0957C17.9507 24.5645 15.1617 24.0882 13.5516 22.8477Z" fill="#FFD683"/>
<path d="M13.5526 22.8499C14.854 22.297 17.8812 22.2774 18.9492 24.1166C17.9263 24.5964 15.289 24.5137 13.5526 22.8499Z" fill="#D9A834"/>
<path d="M11.9775 28.017C11.818 27.8638 11.4975 27.9944 11.3572 28.0788L11.383 28.1584L11.9221 28.1281C12.007 28.1549 12.1369 28.1701 11.9775 28.017Z" fill="#BA8A2A"/>
<path d="M11.9098 28.0869C13.2195 27.5179 16.151 26.976 17.3998 29.3593C16.3739 29.8628 13.8395 30.3131 11.9098 28.0869Z" fill="#BA8A2A"/>
<path d="M11.9498 28.0718C13.8091 27.0352 16.7776 27.5846 17.3862 29.3198C16.3489 29.7886 13.5599 29.3123 11.9498 28.0718Z" fill="#FFD683"/>
<path d="M11.9508 28.0742C13.2522 27.5213 16.2794 27.5018 17.3474 29.3409C16.3245 29.8208 13.6872 29.7381 11.9508 28.0742Z" fill="#D9A834"/>
<path d="M22.362 7.50771C22.5171 7.6662 22.4296 8.02768 22.3664 8.1886L22.2914 8.1683L22.2662 7.57888C22.2336 7.48912 22.207 7.34922 22.362 7.50771Z" fill="#BA8A2A"/>
<path d="M22.304 7.58709C22.6937 6.10664 22.9003 2.8644 20.6082 1.73903C20.2503 2.90443 20.0883 5.70561 22.304 7.58709Z" fill="#BA8A2A"/>
<path d="M22.3134 7.54182C23.0752 5.41764 22.2845 2.24206 20.6452 1.74976C20.3199 2.9241 21.0264 5.91162 22.3134 7.54182Z" fill="#FFD683"/>
<path d="M22.3127 7.54235C22.6888 6.07246 22.4103 2.77719 20.6314 1.79528C20.2947 2.95504 20.628 5.81613 22.3127 7.54235Z" fill="#D9A834"/>
<path d="M20.6087 9.30796C20.7534 9.47775 20.6433 9.83178 20.5702 9.98757L20.4967 9.96167L20.5086 9.37175C20.4817 9.27975 20.464 9.13818 20.6087 9.30796Z" fill="#BA8A2A"/>
<path d="M20.546 9.38563C21.0281 7.93802 21.4384 4.71901 19.2226 3.42382C18.7921 4.55953 18.4541 7.34187 20.546 9.38563Z" fill="#BA8A2A"/>
<path d="M20.5585 9.34037C21.4523 7.27856 20.8635 4.05102 19.2591 3.43652C18.8605 4.58359 19.3773 7.61719 20.5585 9.34037Z" fill="#FFD683"/>
<path d="M20.5576 9.34014C21.0252 7.90203 20.955 4.59363 19.2421 3.48018C18.8332 4.61185 18.9856 7.49124 20.5576 9.34014Z" fill="#D9A834"/>
<path d="M19.1605 11.1043C19.3052 11.2741 19.1951 11.6282 19.122 11.784L19.0484 11.7581L19.0604 11.1681C19.0335 11.0761 19.0158 10.9346 19.1605 11.1043Z" fill="#BA8A2A"/>
<path d="M19.0978 11.1808C19.5799 9.73319 19.9901 6.51417 17.7744 5.21899C17.3439 6.35469 17.0059 9.13704 19.0978 11.1808Z" fill="#BA8A2A"/>
<path d="M19.1103 11.1368C20.004 9.07495 19.4152 5.8474 17.8108 5.23291C17.4123 6.37998 17.929 9.41358 19.1103 11.1368Z" fill="#FFD683"/>
<path d="M19.1093 11.1365C19.577 9.69842 19.5067 6.39002 17.7939 5.27656C17.3849 6.40824 17.5373 9.28762 19.1093 11.1365Z" fill="#D9A834"/>
<path d="M17.5656 12.8504C17.7103 13.0202 17.6002 13.3743 17.5271 13.53L17.4536 13.5042L17.4656 12.9142C17.4386 12.8222 17.4209 12.6807 17.5656 12.8504Z" fill="#BA8A2A"/>
<path d="M17.5029 12.9281C17.985 11.4805 18.3953 8.26149 16.1795 6.9663C15.749 8.10201 15.4111 10.8844 17.5029 12.9281Z" fill="#BA8A2A"/>
<path d="M17.515 12.8829C18.4088 10.821 17.82 7.5935 16.2156 6.979C15.8171 8.12607 16.3338 11.1597 17.515 12.8829Z" fill="#FFD683"/>
<path d="M17.5145 12.8826C17.9821 11.4445 17.9119 8.13611 16.1991 7.02266C15.7901 8.15433 15.9425 11.0337 17.5145 12.8826Z" fill="#D9A834"/>
<path d="M16.4321 14.3851C16.605 14.5196 16.5622 14.8906 16.5192 15.0593L16.4424 15.0501L16.3458 14.4695C16.3025 14.3853 16.2591 14.2505 16.4321 14.3851Z" fill="#BA8A2A"/>
<path d="M16.3847 14.4744C16.591 12.9505 16.4015 9.70701 13.993 8.92463C13.7799 10.1317 13.96 12.9316 16.3847 14.4744Z" fill="#BA8A2A"/>
<path d="M16.3888 14.4268C16.8856 12.2108 15.7158 9.1783 14.0312 8.92853C13.8516 10.1397 14.9151 12.9981 16.3888 14.4268Z" fill="#FFD683"/>
<path d="M16.3879 14.4272C16.5818 12.9157 15.9052 9.69011 14.0227 8.97537C13.8299 10.1738 14.5082 12.961 16.3879 14.4272Z" fill="#D9A834"/>
<path d="M14.9944 15.5564C15.193 15.6384 15.2381 16.009 15.2358 16.1841L15.1594 16.1966L14.9306 15.6622C14.8691 15.5928 14.7958 15.4745 14.9944 15.5564Z" fill="#BA8A2A"/>
<path d="M14.9692 15.6554C14.8135 14.1243 13.8743 11.0407 11.3629 10.955C11.4382 12.1815 12.2649 14.8388 14.9692 15.6554Z" fill="#BA8A2A"/>
<path d="M14.9624 15.6096C14.9262 13.3283 13.0883 10.7217 11.401 10.9494C11.5096 12.1707 13.2043 14.6385 14.9624 15.6096Z" fill="#FFD683"/>
<path d="M14.9618 15.6094C14.7971 14.0938 13.3909 11.1632 11.404 10.9964C11.4969 12.2089 12.8025 14.7152 14.9618 15.6094Z" fill="#D9A834"/>
<path d="M14.091 17.1152C14.2998 17.1572 14.4045 17.5132 14.4308 17.6859L14.3576 17.713L14.0455 17.2316C13.9737 17.1753 13.8822 17.0732 14.091 17.1152Z" fill="#BA8A2A"/>
<path d="M14.0816 17.2174C13.6791 15.741 12.2529 12.8893 9.76763 13.2934C10.0414 14.4858 11.2875 16.9399 14.0816 17.2174Z" fill="#BA8A2A"/>
<path d="M14.0683 17.1724C13.6614 14.9346 11.4285 12.7271 9.80524 13.2794C10.1109 14.46 12.1802 16.5588 14.0683 17.1724Z" fill="#FFD683"/>
<path d="M14.0669 17.1735C13.6581 15.7141 11.7973 13.1038 9.81493 13.3261C10.1037 14.5012 11.7965 16.7136 14.0669 17.1735Z" fill="#D9A834"/>
<path d="M13.4088 18.0926C13.6185 18.0568 13.8249 18.355 13.9019 18.5085L13.8411 18.5606L13.401 18.2189C13.3162 18.1917 13.199 18.1283 13.4088 18.0926Z" fill="#BA8A2A"/>
<path d="M13.4314 18.1923C12.6053 16.9441 10.3974 14.7675 8.17379 16.0465C8.79252 17.073 10.7103 18.9393 13.4314 18.1923Z" fill="#BA8A2A"/>
<path d="M13.4055 18.1563C12.3452 16.1911 9.57048 14.9139 8.20526 16.0213C8.85053 17.0253 11.4379 18.259 13.4055 18.1563Z" fill="#FFD683"/>
<path d="M13.4045 18.1561C12.5776 16.9263 10.0324 15.1344 8.22851 16.0601C8.85624 17.0649 11.1225 18.5419 13.4045 18.1561Z" fill="#D9A834"/>
<path d="M11.93 20.808C12.1218 20.7084 12.3973 20.93 12.5111 21.0532L12.4663 21.122L11.9555 20.9315C11.8671 20.9318 11.7383 20.9075 11.93 20.808Z" fill="#BA8A2A"/>
<path d="M11.9774 20.8961C10.8604 19.9567 8.17691 18.5574 6.37848 20.4755C7.239 21.267 9.56349 22.4592 11.9774 20.8961Z" fill="#BA8A2A"/>
<path d="M11.9433 20.8693C10.415 19.3155 7.42246 18.9548 6.40222 20.4413C7.2823 21.2029 10.0839 21.5802 11.9433 20.8693Z" fill="#FFD683"/>
<path d="M11.9421 20.8697C10.8291 19.9482 7.9226 19.0226 6.43448 20.4715C7.29796 21.2394 9.85513 21.9498 11.9421 20.8697Z" fill="#D9A834"/>
<path d="M23.8568 6.04872C23.9773 6.23978 23.8211 6.57245 23.7279 6.7149L23.6586 6.67754L23.7493 6.09586C23.7349 6.00054 23.7363 5.85766 23.8568 6.04872Z" fill="#BA8A2A"/>
<path d="M23.7842 6.11406C24.4544 4.75889 25.2902 1.63984 23.2711 0.00493247C22.6936 1.05977 21.9877 3.75837 23.7842 6.11406Z" fill="#BA8A2A"/>
<path d="M23.8031 6.07102C24.9627 4.17393 24.8112 0.886998 23.3061 0.0230482C22.7586 1.09423 22.8647 4.17779 23.8031 6.07102Z" fill="#FFD683"/>
<path d="M23.8017 6.07165C24.4564 4.72358 24.8287 1.43942 23.2829 0.0645505C22.7272 1.11883 22.4934 3.99169 23.8017 6.07165Z" fill="#D9A834"/>
<path d="M11.4441 52.9499C11.4441 52.9499 -3.3806 18.7768 4.06425 0.68524C4.06425 0.68524 15.1744 33.4027 14.3073 51.5338L11.4441 52.9499Z" fill="#8DC73F"/>
<path d="M14.1352 54.835C20.4753 54.835 25.6151 53.7913 25.6151 52.5037C25.6151 51.2161 20.4753 50.1724 14.1352 50.1724C7.79501 50.1724 2.65527 51.2161 2.65527 52.5037C2.65527 53.7913 7.79501 54.835 14.1352 54.835Z" fill="#3C2003"/>
</svg>
