<svg width="91" height="69" viewBox="0 0 91 69" fill="none" xmlns="http://www.w3.org/2000/svg">
<path d="M28.0698 49.9285C28.0698 49.9285 27.691 23.8479 36.3646 14.8005C36.3646 14.8005 34.9388 38.8111 30.0727 49.9305L28.0698 49.9285Z" fill="#C7C53F"/>
<path d="M26.699 50.3819C26.699 50.3819 26.3202 24.3012 34.9938 15.2539C34.9938 15.2539 33.5679 39.2644 28.7018 50.3839L26.699 50.3819Z" fill="#8DC73F"/>
<path d="M30.5512 48.6169C30.5512 48.6169 29.4006 34.9475 38.0198 27.2563C38.0198 27.2563 37.1239 43.4409 31.8503 48.743L30.5512 48.6169Z" fill="#8DC73F"/>
<path d="M29.9245 49.5319C29.9245 49.5319 28.7739 35.8625 37.3931 28.1714C37.3931 28.1714 36.4972 44.356 31.2235 49.658L29.9245 49.5319Z" fill="#C7C53F"/>
<path d="M28.6069 50.4461C28.6069 50.4461 18.8375 43.0255 19.0946 30.2549C19.0946 30.2549 29.26 41.1362 29.4974 49.3192L28.6069 50.4461Z" fill="#E1DE42"/>
<path d="M27.3391 50.4461C27.3391 50.4461 17.5697 43.0255 17.8268 30.2549C17.8268 30.2549 27.9922 41.1362 28.2296 49.3192L27.3391 50.4461Z" fill="#8DC73F"/>
<path d="M62.4963 52.6477C62.482 52.6477 62.4681 52.6474 62.4535 52.6464C61.1338 52.5764 60.5417 51.7523 60.1094 51.1945C59.7205 50.6931 59.5415 50.4282 59.0255 50.4282C59.0233 50.4282 59.0214 50.4282 59.0195 50.4282C58.5827 50.4282 58.4892 50.6206 58.2008 51.1204C57.8807 51.675 57.3498 52.6318 55.8656 52.5545C54.5785 52.4873 53.9865 51.8087 53.5545 51.3026C53.1748 50.8579 52.9615 50.6158 52.3099 50.6158C52.2943 50.6158 52.2788 50.6199 52.2636 50.6202C51.5334 50.6329 51.2614 50.9349 50.85 51.3898C50.4117 51.8734 49.8013 52.5304 48.6372 52.5066C47.4227 52.4756 46.8661 51.6677 46.4975 51.1321C46.1241 50.5892 45.9853 50.4221 45.5007 50.4614C45.0266 50.503 44.8767 50.703 44.5547 51.1907C44.1623 51.785 43.5747 52.6759 42.0017 52.6036C40.5032 52.5279 40.0132 51.5983 39.6887 50.9831C39.405 50.4462 39.3093 50.2846 38.7537 50.2985C38.0203 50.3169 37.7357 50.6 37.305 51.0288C36.7843 51.547 36.1361 52.1919 34.7555 52.2588C32.8802 52.3501 32.1183 51.2104 31.7088 50.5987C31.6651 50.5334 31.6105 50.4519 31.5687 50.3952C31.2546 50.2833 31.0331 49.9794 31.0423 49.6276C31.0537 49.1905 31.4121 48.8431 31.8549 48.8561C32.4603 48.872 32.7737 49.3404 33.0257 49.7169C33.3721 50.2345 33.7014 50.7251 34.6788 50.6757C35.4509 50.6383 35.7434 50.3467 36.1872 49.9052C36.7054 49.3895 37.35 48.7484 38.7141 48.7141C38.7455 48.7132 38.7762 48.7129 38.8063 48.7129C40.2836 48.7129 40.7676 49.6314 41.0908 50.2437C41.3691 50.7717 41.4845 50.9904 42.0819 51.0205C42.7494 51.0551 42.8888 50.8383 43.2327 50.3172C43.5814 49.7895 44.1078 48.9921 45.3641 48.8831C46.7875 48.7592 47.3995 49.6466 47.8033 50.2339C48.1564 50.747 48.3022 50.914 48.6777 50.9235C49.1028 50.9387 49.285 50.76 49.6755 50.328C50.1582 49.7946 50.8193 49.0644 52.236 49.0393C52.2598 49.039 52.2832 49.0387 52.307 49.0387C53.693 49.0387 54.3085 49.7597 54.7601 50.2887C55.1233 50.714 55.3424 50.9708 55.949 51.0025C56.4554 51.0335 56.5448 50.8209 56.8288 50.328C57.1552 49.7623 57.6487 48.8435 59.0147 48.8435C59.0182 48.8435 59.0214 48.8435 59.0249 48.8435C60.3389 48.8435 60.93 49.6669 61.362 50.2237C61.7534 50.7289 61.967 51.0034 62.5375 51.0338C62.9742 51.0567 63.3099 51.4452 63.2864 51.8823C63.2646 52.3048 62.9147 52.6477 62.4963 52.6477Z" fill="#3C2003"/>
<path d="M65.9282 42.8037C46.9037 22.4695 33.2022 29.6349 29.6797 48.892C36.9829 6.1378 65.3528 42.1354 65.9282 42.8037C65.9311 42.8069 65.934 42.81 65.937 42.8131C65.9364 42.813 65.9335 42.8099 65.9282 42.8037Z" fill="#A3B72A"/>
<path d="M29.7861 48.2697C32.7146 32.242 42.4407 20.7096 65.3817 42.008C48.5996 25.5923 34.7131 21.3048 29.7861 48.2697Z" fill="#848918"/>
<path d="M29.7304 48.2288C32.4267 33.4883 42.9158 28.0049 57.4796 43.5764C57.4323 43.5683 35.3711 15.207 29.7304 48.2288Z" fill="#A3B72A"/>
<path d="M29.811 47.7533C32.0524 35.4867 39.4961 26.6604 57.0538 42.961C44.2098 30.3973 33.5818 27.1159 29.811 47.7533Z" fill="#848918"/>
<path d="M50.4174 9.81693C50.0821 9.79075 49.82 10.2715 49.7309 10.5151L49.8367 10.586L50.4554 10.0078C50.5825 9.9551 50.7528 9.84311 50.4174 9.81693Z" fill="#BA8A2A"/>
<path d="M50.4027 9.97286C51.4408 7.96458 54.4523 4.35948 58.1932 6.00535C57.4342 7.6489 54.8136 10.7434 50.4027 9.97286Z" fill="#BA8A2A"/>
<path d="M50.4365 9.91301C51.695 6.78323 55.7769 4.46933 58.1394 5.96962C57.3343 7.58243 53.5367 9.80504 50.4365 9.91301Z" fill="#FFD683"/>
<path d="M50.4378 9.914C51.481 7.93352 55.0987 4.86803 58.1107 6.03326C57.3332 7.64502 54.0878 10.1943 50.4378 9.914Z" fill="#D9A834"/>
<path d="M42.4578 11.4429C42.1328 11.5561 42.0456 12.1037 42.0427 12.3633L42.166 12.385L42.5571 11.6022C42.6594 11.5019 42.7827 11.3296 42.4578 11.4429Z" fill="#BA8A2A"/>
<path d="M42.4952 11.5926C42.806 9.32807 44.4464 4.79343 48.5216 4.77088C48.3527 6.58703 46.9111 10.494 42.4952 11.5926Z" fill="#BA8A2A"/>
<path d="M42.5071 11.5235C42.6526 8.14142 45.7319 4.35174 48.4589 4.75972C48.2363 6.56658 45.3946 10.1563 42.5071 11.5235Z" fill="#FFD683"/>
<path d="M42.5086 11.5233C42.8334 9.28215 45.2249 4.99388 48.4529 4.82918C48.256 6.62377 46.0437 10.2869 42.5086 11.5233Z" fill="#D9A834"/>
<path d="M50.9785 11.6143C50.9431 11.2441 50.4733 11.0778 50.2428 11.041L50.1987 11.1732L50.8167 11.7024C50.8853 11.8273 51.0138 11.9846 50.9785 11.6143Z" fill="#BA8A2A"/>
<path d="M50.8376 11.6346C52.7905 12.2676 56.4962 14.6492 55.6962 19.1118C54.1138 18.6921 50.9266 16.6091 50.8376 11.6346Z" fill="#BA8A2A"/>
<path d="M50.8964 11.6576C53.8772 12.2543 56.6304 16.1143 55.7185 19.0457C54.1551 18.5684 51.5321 14.9944 50.8964 11.6576Z" fill="#FFD683"/>
<path d="M50.8962 11.6596C52.8254 12.305 56.1608 15.4767 55.6577 19.0305C54.1001 18.583 51.2851 15.6882 50.8962 11.6596Z" fill="#D9A834"/>
<path d="M46.6291 11.7596C46.5937 11.3893 46.1239 11.2231 45.8934 11.1863L45.8493 11.3184L46.4673 11.8476C46.536 11.9726 46.6645 12.1298 46.6291 11.7596Z" fill="#BA8A2A"/>
<path d="M46.4895 11.7823C48.4424 12.4153 52.1482 14.7969 51.3481 19.2595C49.7657 18.8398 46.5786 16.7568 46.4895 11.7823Z" fill="#BA8A2A"/>
<path d="M46.5484 11.8038C49.5292 12.4005 52.2823 16.2605 51.3705 19.192C49.8071 18.7147 47.1841 15.1406 46.5484 11.8038Z" fill="#FFD683"/>
<path d="M46.5479 11.8054C48.4772 12.4507 51.8125 15.6225 51.3095 19.1763C49.7519 18.7287 46.9369 15.8339 46.5479 11.8054Z" fill="#D9A834"/>
<path d="M39.8592 14.9288C39.8238 14.5585 39.354 14.3923 39.1235 14.3554L39.0794 14.4876L39.6974 15.0168C39.7661 15.1417 39.8946 15.299 39.8592 14.9288Z" fill="#BA8A2A"/>
<path d="M39.7192 14.9508C41.672 15.5838 45.3778 17.9654 44.5778 22.4279C42.9953 22.0083 39.8082 19.9253 39.7192 14.9508Z" fill="#BA8A2A"/>
<path d="M39.778 14.9725C42.7588 15.5692 45.512 19.4292 44.6001 22.3607C43.0367 21.8834 40.4137 18.3093 39.778 14.9725Z" fill="#FFD683"/>
<path d="M39.7775 14.9745C41.7068 15.6199 45.0421 18.7917 44.5391 22.3455C42.9815 21.8979 40.1665 19.0031 39.7775 14.9745Z" fill="#D9A834"/>
<path d="M36.815 18.6028C36.7797 18.2326 36.3098 18.0663 36.0793 18.0295L36.0352 18.1617L36.6532 18.6909C36.7219 18.8158 36.8504 18.9731 36.815 18.6028Z" fill="#BA8A2A"/>
<path d="M36.6753 18.6256C38.6282 19.2586 42.334 21.6402 41.5339 26.1027C39.9515 25.6831 36.7644 23.6001 36.6753 18.6256Z" fill="#BA8A2A"/>
<path d="M36.7341 18.6473C39.7149 19.244 42.468 23.104 41.5561 26.0355C39.9928 25.5582 37.3697 21.9841 36.7341 18.6473Z" fill="#FFD683"/>
<path d="M36.7333 18.6493C38.6626 19.2947 41.9979 22.4665 41.4949 26.0203C39.9373 25.5727 37.1223 22.6779 36.7333 18.6493Z" fill="#D9A834"/>
<path d="M42.8552 13.0247C42.8198 12.6545 42.35 12.4882 42.1195 12.4514L42.0754 12.5836L42.6934 13.1128C42.762 13.2377 42.8905 13.395 42.8552 13.0247Z" fill="#BA8A2A"/>
<path d="M42.7148 13.0465C44.6677 13.6795 48.3734 16.0611 47.5734 20.5236C45.9909 20.104 42.8038 18.021 42.7148 13.0465Z" fill="#BA8A2A"/>
<path d="M42.7736 13.0687C45.7544 13.6654 48.5076 17.5254 47.5957 20.4569C46.0323 19.9796 43.4093 16.4055 42.7736 13.0687Z" fill="#FFD683"/>
<path d="M42.7729 13.07C44.7021 13.7154 48.0375 16.8871 47.5344 20.4409C45.9768 19.9934 43.1618 17.0986 42.7729 13.07Z" fill="#D9A834"/>
<mask id="mask0_116_274" style="mask-type:alpha" maskUnits="userSpaceOnUse" x="28" y="10" width="59" height="40">
<path d="M28.8793 49.3173C29.2747 44.5284 29.772 40.1876 30.3947 36.2898C30.8815 32.9571 31.4995 30.0079 32.2406 27.4129C38.3358 4.76151 51.9004 4.70149 81.6194 25.4206C83.3168 26.5113 85.0376 27.6375 86.7789 28.7886C86.7649 28.718 86.7218 28.9612 86.7101 29.056C86.7124 29.0577 86.7147 29.0593 86.717 29.061C86.7059 29.1098 86.7052 29.0963 86.7101 29.056C84.9626 27.7806 83.2662 26.5687 81.6194 25.4206C58.336 10.4586 39.4536 2.15681 32.2406 27.4129C31.5278 30.0619 30.9171 33.0199 30.3947 36.2898C29.8328 40.1361 29.4456 44.4931 29.245 49.4057L28.8793 49.3173Z" fill="#BA8A2A"/>
</mask>
<g mask="url(#mask0_116_274)">
<rect x="28.6281" y="-2.97485" width="28.9509" height="56.6486" transform="rotate(9.69355 28.6281 -2.97485)" fill="#BA8A2A"/>
</g>
<path d="M29.1766 50.7508C26.4803 36.0103 15.9911 30.5268 1.42738 46.0984C1.47466 46.0903 23.5359 17.729 29.1766 50.7508Z" fill="#A3B72A"/>
<path d="M29.0956 50.2753C26.8543 38.0087 19.4105 29.1824 1.85279 45.4829C14.6968 32.9193 25.3248 29.6379 29.0956 50.2753Z" fill="#848918"/>
<path d="M78.5258 35.2519C78.3826 34.9565 77.901 35.0075 77.6781 35.0699L77.677 35.1984L78.4034 35.3911C78.5039 35.4678 78.6691 35.5474 78.5258 35.2519Z" fill="#BA8A2A"/>
<path d="M78.4037 35.3259C80.3885 35.0654 84.5077 35.5585 85.1062 39.6155C83.5258 39.9047 79.9727 39.4515 78.4037 35.3259Z" fill="#BA8A2A"/>
<path d="M78.464 35.3213C81.3831 34.6145 85.0684 36.7299 85.1063 39.5512C83.5262 39.7844 80.0461 37.8557 78.464 35.3213Z" fill="#FFD683"/>
<path d="M78.4648 35.3223C80.4315 35.0817 84.4464 36.3857 85.0463 39.5623C83.4803 39.818 80.0267 38.5352 78.4648 35.3223Z" fill="#D9A834"/>
<path d="M73.3134 29.0969C73.4097 28.7585 73.0563 28.4469 72.8675 28.3334L72.7836 28.4342L73.1418 29.1175C73.1588 29.2516 73.2171 29.4353 73.3134 29.0969Z" fill="#BA8A2A"/>
<path d="M73.1838 29.0678C74.6728 30.3121 77.0928 33.7124 74.8604 37.3593C73.6218 36.4332 71.5524 33.4782 73.1838 29.0678Z" fill="#BA8A2A"/>
<path d="M73.2272 29.1071C75.627 30.6811 76.7066 35.0477 74.9025 37.3074C73.7003 36.3373 72.6362 32.2682 73.2272 29.1071Z" fill="#FFD683"/>
<path d="M73.2262 29.1086C74.6903 30.3555 76.5151 34.321 74.8545 37.2724C73.6472 36.3305 72.1819 32.7918 73.2262 29.1086Z" fill="#D9A834"/>
<path d="M80.2392 38.2204C80.3355 37.882 79.9821 37.5704 79.7933 37.4569L79.7094 37.5577L80.0675 38.241C80.0846 38.3751 80.1429 38.5588 80.2392 38.2204Z" fill="#BA8A2A"/>
<path d="M80.11 38.1899C81.5991 39.4342 84.0191 42.8345 81.7867 46.4814C80.5481 45.5552 78.4787 42.6003 80.11 38.1899Z" fill="#BA8A2A"/>
<path d="M80.1538 38.2297C82.5536 39.8037 83.6332 44.1703 81.8291 46.43C80.627 45.4598 79.5628 41.3908 80.1538 38.2297Z" fill="#FFD683"/>
<path d="M80.1526 38.2302C81.6167 39.4771 83.4415 43.4426 81.7809 46.394C80.5736 45.4521 79.1083 41.9134 80.1526 38.2302Z" fill="#D9A834"/>
<path d="M77.548 35.0754C77.6443 34.737 77.2909 34.4254 77.1022 34.3119L77.0182 34.4127L77.3764 35.096C77.3935 35.2301 77.4517 35.4138 77.548 35.0754Z" fill="#BA8A2A"/>
<path d="M77.4186 35.0463C78.9077 36.2906 81.3277 39.6909 79.0953 43.3378C77.8567 42.4117 75.7873 39.4567 77.4186 35.0463Z" fill="#BA8A2A"/>
<path d="M77.4623 35.0862C79.8621 36.6601 80.9417 41.0267 79.1376 43.2864C77.9355 42.3163 76.8713 38.2472 77.4623 35.0862Z" fill="#FFD683"/>
<path d="M77.4612 35.0871C78.9253 36.334 80.7501 40.2995 79.0895 43.251C77.8822 42.309 76.4169 38.7703 77.4612 35.0871Z" fill="#D9A834"/>
<path d="M75.8322 32.5344C75.9285 32.196 75.5751 31.8844 75.3863 31.7709L75.3024 31.8717L75.6606 32.555C75.6776 32.6891 75.7359 32.8728 75.8322 32.5344Z" fill="#BA8A2A"/>
<path d="M75.7022 32.5038C77.1913 33.7481 79.6113 37.1484 77.3788 40.7954C76.1402 39.8692 74.0708 36.9143 75.7022 32.5038Z" fill="#BA8A2A"/>
<path d="M75.7463 32.5437C78.146 34.1176 79.2256 38.4842 77.4215 40.7439C76.2194 39.7738 75.1552 35.7047 75.7463 32.5437Z" fill="#FFD683"/>
<path d="M75.7445 32.5456C77.2086 33.7925 79.0335 37.758 77.3728 40.7095C76.1655 39.7675 74.7002 36.2288 75.7445 32.5456Z" fill="#D9A834"/>
<path d="M76.058 31.5796C75.9147 31.2841 75.4331 31.3351 75.2102 31.3976L75.2091 31.526L75.9355 31.7187C76.036 31.7954 76.2012 31.875 76.058 31.5796Z" fill="#BA8A2A"/>
<path d="M75.9357 31.6545C77.9205 31.394 82.0397 31.8871 82.6381 35.9441C81.0578 36.2333 77.5047 35.7801 75.9357 31.6545Z" fill="#BA8A2A"/>
<path d="M75.996 31.6494C78.9151 30.9426 82.6004 33.058 82.6383 35.8793C81.0582 36.1125 77.578 34.1838 75.996 31.6494Z" fill="#FFD683"/>
<path d="M75.9966 31.6519C77.9634 31.4113 81.9782 32.7153 82.5781 35.8919C81.0122 36.1476 77.5586 34.8648 75.9966 31.6519Z" fill="#D9A834"/>
<path d="M75.0662 29.8505C74.8151 29.6556 74.3779 29.9119 74.1907 30.0644L74.2399 30.177L75.0043 30.0259C75.1296 30.0487 75.3174 30.0455 75.0662 29.8505Z" fill="#BA8A2A"/>
<path d="M74.9796 29.9698C76.7612 28.8695 80.8623 27.4887 83.013 30.7676C81.6262 31.715 78.078 32.8817 74.9796 29.9698Z" fill="#BA8A2A"/>
<path d="M75.0349 29.9381C77.529 28.0374 81.8512 28.2637 82.988 30.7103C81.5797 31.6087 77.5249 31.4551 75.0349 29.9381Z" fill="#FFD683"/>
<path d="M75.036 29.9395C76.8084 28.8645 81.1267 28.2376 82.9353 30.7472C81.5493 31.659 77.7717 32.0577 75.036 29.9395Z" fill="#D9A834"/>
<path d="M73.1803 27.622C72.9292 27.4271 72.4921 27.6834 72.3049 27.8359L72.354 27.9485L73.1184 27.7973C73.2437 27.8201 73.4315 27.817 73.1803 27.622Z" fill="#BA8A2A"/>
<path d="M73.0937 27.7408C74.8754 26.6405 78.9764 25.2597 81.1272 28.5386C79.7404 29.486 76.1922 30.6527 73.0937 27.7408Z" fill="#BA8A2A"/>
<path d="M73.1491 27.7096C75.6431 25.8089 79.9654 26.0352 81.1021 28.4817C79.6938 29.3802 75.639 29.2266 73.1491 27.7096Z" fill="#FFD683"/>
<path d="M73.1504 27.7114C74.9227 26.6365 79.2411 26.0096 81.0497 28.5191C79.6636 29.431 75.8861 29.8296 73.1504 27.7114Z" fill="#D9A834"/>
<path d="M71.3698 25.0932C71.1186 24.8982 70.6815 25.1546 70.4943 25.3071L70.5435 25.4197L71.3079 25.2685C71.4332 25.2913 71.621 25.2882 71.3698 25.0932Z" fill="#BA8A2A"/>
<path d="M71.2827 25.212C73.0643 24.1117 77.1654 22.7309 79.3161 26.0098C77.9293 26.9572 74.3811 28.1239 71.2827 25.212Z" fill="#BA8A2A"/>
<path d="M71.3385 25.1803C73.8326 23.2796 78.1548 23.5059 79.2916 25.9524C77.8833 26.8509 73.8285 26.6973 71.3385 25.1803Z" fill="#FFD683"/>
<path d="M71.3391 25.1831C73.1115 24.1082 77.4298 23.4812 79.2384 25.9908C77.8524 26.9027 74.0748 27.3013 71.3391 25.1831Z" fill="#D9A834"/>
<path d="M67.3751 20.805C67.1003 20.6468 66.6914 20.9557 66.5214 21.13L66.5838 21.234L67.3334 20.9852C67.4618 20.991 67.6499 20.9633 67.3751 20.805Z" fill="#BA8A2A"/>
<path d="M67.3024 20.9339C68.9623 19.6202 72.9174 17.7263 75.4587 20.66C74.1774 21.7718 70.7522 23.3831 67.3024 20.9339Z" fill="#BA8A2A"/>
<path d="M67.3542 20.8952C69.6357 18.7026 74.0003 18.3561 75.4268 20.6067C74.1181 21.6733 70.0304 22.0559 67.3542 20.8952Z" fill="#FFD683"/>
<path d="M67.3554 20.8973C69.0088 19.6096 73.27 18.4266 75.3782 20.6507C74.0934 21.7275 70.3483 22.6155 67.3554 20.8973Z" fill="#D9A834"/>
<path d="M64.0176 17.4482C63.728 17.3186 63.344 17.6633 63.1882 17.8519L63.2599 17.9485L63.9912 17.6301C64.1207 17.6235 64.3072 17.5778 64.0176 17.4482Z" fill="#BA8A2A"/>
<path d="M63.9556 17.5807C65.5095 16.1225 69.3183 13.8687 72.1228 16.5195C70.9316 17.7416 67.6306 19.6648 63.9556 17.5807Z" fill="#BA8A2A"/>
<path d="M64.0045 17.538C66.107 15.1516 70.4603 14.3864 72.0863 16.4706C70.8639 17.6507 66.7918 18.4248 64.0045 17.538Z" fill="#FFD683"/>
<path d="M64.0054 17.5399C65.5551 16.1081 69.7324 14.5268 72.0408 16.5187C70.8432 17.7066 67.1588 18.9465 64.0054 17.5399Z" fill="#D9A834"/>
<path d="M59.9365 13.9771C59.6732 13.7998 59.2492 14.0826 59.0701 14.2461L59.1258 14.3547L59.8845 14.1551C60.0115 14.1696 60.1998 14.1543 59.9365 13.9771Z" fill="#BA8A2A"/>
<path d="M59.8565 14.1012C61.5816 12.8938 65.6187 11.2577 67.9658 14.373C66.6283 15.4031 63.1338 16.7909 59.8565 14.1012Z" fill="#BA8A2A"/>
<path d="M59.9105 14.0659C62.3047 12.0178 66.6561 11.9626 67.9376 14.3174C66.5756 15.3003 62.4969 15.4104 59.9105 14.0659Z" fill="#FFD683"/>
<path d="M59.9108 14.0679C61.628 12.8862 65.9265 11.9844 67.886 14.3582C66.5472 15.353 62.7784 15.9933 59.9108 14.0679Z" fill="#D9A834"/>
<path d="M57.9059 12.3384C57.6426 12.1611 57.2185 12.4439 57.0394 12.6074L57.0952 12.716L57.8538 12.5164C57.9809 12.5309 58.1692 12.5157 57.9059 12.3384Z" fill="#BA8A2A"/>
<path d="M57.8257 12.4626C59.5509 11.2551 63.5879 9.61906 65.9351 12.7343C64.5975 13.7644 61.1031 15.1523 57.8257 12.4626Z" fill="#BA8A2A"/>
<path d="M57.88 12.4272C60.2741 10.3792 64.6255 10.3239 65.9071 12.6787C64.5451 13.6616 60.4663 13.7717 57.88 12.4272Z" fill="#FFD683"/>
<path d="M57.8807 12.4293C59.5979 11.2476 63.8964 10.3457 65.8559 12.7195C64.517 13.7144 60.7482 14.3546 57.8807 12.4293Z" fill="#D9A834"/>
<path d="M54.2697 11.0798C53.9751 10.9615 53.6196 11.3267 53.4787 11.5241L53.556 11.6186L54.256 11.2647C54.3833 11.2523 54.5642 11.198 54.2697 11.0798Z" fill="#BA8A2A"/>
<path d="M54.2168 11.2171C55.6511 9.67542 59.2563 7.23074 62.2035 9.78581C61.1111 11.073 57.9845 13.1614 54.2168 11.2171Z" fill="#BA8A2A"/>
<path d="M54.2629 11.1716C56.1755 8.66787 60.419 7.70326 62.1649 9.73768C61.0388 10.9839 57.0734 11.9451 54.2629 11.1716Z" fill="#FFD683"/>
<path d="M54.2636 11.174C55.6955 9.65906 59.7101 7.87759 62.123 9.78878C61.022 11.0418 57.4706 12.4566 54.2636 11.174Z" fill="#D9A834"/>
<path d="M69.1023 24.1386C69.1828 23.797 68.8133 23.5063 68.6185 23.4036L68.5391 23.5083L68.931 24.1683C68.9546 24.3007 69.0218 24.4802 69.1023 24.1386Z" fill="#BA8A2A"/>
<path d="M68.9706 24.1163C70.524 25.2732 73.1143 28.5233 71.0483 32.2687C69.7613 31.4146 67.5441 28.5884 68.9706 24.1163Z" fill="#BA8A2A"/>
<path d="M69.0163 24.1545C71.4992 25.5902 72.7907 29.8729 71.0883 32.2163C69.8358 31.3165 68.5741 27.3287 69.0163 24.1545Z" fill="#FFD683"/>
<path d="M69.015 24.1552C70.5435 25.316 72.5636 29.16 71.0382 32.1833C69.7818 31.3118 68.1429 27.8728 69.015 24.1552Z" fill="#D9A834"/>
<path d="M65.9292 20.808C66.0097 20.4665 65.6402 20.1757 65.4454 20.073L65.366 20.1777L65.7579 20.8377C65.7815 20.9701 65.8487 21.1496 65.9292 20.808Z" fill="#BA8A2A"/>
<path d="M65.7972 20.7848C67.3506 21.9417 69.9409 25.1918 67.8749 28.9372C66.588 28.0831 64.3707 25.2568 65.7972 20.7848Z" fill="#BA8A2A"/>
<path d="M65.8432 20.8235C68.3261 22.2591 69.6176 26.5419 67.9152 28.8852C66.6627 27.9854 65.401 23.9976 65.8432 20.8235Z" fill="#FFD683"/>
<path d="M65.8426 20.8237C67.3712 21.9845 69.3913 25.8285 67.8658 28.8518C66.6095 27.9802 64.9705 24.5413 65.8426 20.8237Z" fill="#D9A834"/>
<path d="M62.412 16.6235C62.4925 16.2819 62.123 15.9911 61.9282 15.8884L61.8488 15.9932L62.2407 16.6532C62.2643 16.7856 62.3315 16.965 62.412 16.6235Z" fill="#BA8A2A"/>
<path d="M62.28 16.5997C63.8334 17.7566 66.4237 21.0067 64.3577 24.7521C63.0708 23.898 60.8535 21.0718 62.28 16.5997Z" fill="#BA8A2A"/>
<path d="M62.3262 16.6364C64.8092 18.0721 66.1006 22.3549 64.3982 24.6982C63.1458 23.7984 61.884 19.8106 62.3262 16.6364Z" fill="#FFD683"/>
<path d="M62.3254 16.6386C63.854 17.7994 65.874 21.6434 64.3486 24.6667C63.0923 23.7952 61.4533 20.3562 62.3254 16.6386Z" fill="#D9A834"/>
<path d="M59.15 14.4526C59.2305 14.111 58.861 13.8202 58.6662 13.7175L58.5868 13.8223L58.9788 14.4823C59.0023 14.6147 59.0695 14.7941 59.15 14.4526Z" fill="#BA8A2A"/>
<path d="M59.0179 14.4298C60.5713 15.5867 63.1616 18.8368 61.0956 22.5822C59.8087 21.7281 57.5914 18.9018 59.0179 14.4298Z" fill="#BA8A2A"/>
<path d="M59.064 14.468C61.5469 15.9036 62.8384 20.1864 61.136 22.5298C59.8836 21.63 58.6218 17.6421 59.064 14.468Z" fill="#FFD683"/>
<path d="M59.0625 14.4697C60.591 15.6305 62.6111 19.4745 61.0856 22.4978C59.8293 21.6262 58.1904 18.1872 59.0625 14.4697Z" fill="#D9A834"/>
<path d="M56.7677 13.4135C56.8482 13.0719 56.4787 12.7812 56.2839 12.6785L56.2045 12.7832L56.5964 13.4432C56.62 13.5756 56.6872 13.7551 56.7677 13.4135Z" fill="#BA8A2A"/>
<path d="M56.6357 13.3902C58.1891 14.5471 60.7794 17.7973 58.7134 21.5426C57.4265 20.6885 55.2092 17.8623 56.6357 13.3902Z" fill="#BA8A2A"/>
<path d="M56.6822 13.427C59.1651 14.8626 60.4566 19.1454 58.7542 21.4888C57.5017 20.5889 56.2399 16.6011 56.6822 13.427Z" fill="#FFD683"/>
<path d="M56.6802 13.4291C58.2087 14.59 60.2288 18.434 58.7033 21.4572C57.447 20.5857 55.808 17.1467 56.6802 13.4291Z" fill="#D9A834"/>
<mask id="mask1_116_274" style="mask-type:alpha" maskUnits="userSpaceOnUse" x="23" y="9" width="59" height="32">
<path d="M23.4751 38.7801C25.4176 34.6837 27.301 31.0168 29.1476 27.7829C30.6863 25.0026 32.2132 22.6045 33.7309 20.5601C46.6489 2.59024 58.6444 7.05064 77.9881 35.231C79.1237 36.7588 80.2682 38.3256 81.4226 39.9213C81.4337 39.8542 81.3147 40.0546 81.2729 40.1344C81.2743 40.1367 81.2758 40.1389 81.2773 40.1411C81.2512 40.1805 81.2551 40.1684 81.2729 40.1344C80.1544 38.427 79.06 36.7926 77.9881 35.231C62.4106 14.2746 48.5024 0.662602 33.7309 20.5601C32.2202 22.6616 30.6968 25.0699 29.1476 27.7829C27.3718 30.9916 25.5802 34.7094 23.7686 38.9797L23.4751 38.7801Z" fill="#BA8A2A"/>
</mask>
<g mask="url(#mask1_116_274)">
<rect x="97.137" y="38.4517" width="15.2574" height="50.956" transform="rotate(131.035 97.137 38.4517)" fill="#BA8A2A"/>
</g>
<path d="M29.0765 53.0238C34.6575 53.0238 39.1818 52.105 39.1818 50.9716C39.1818 49.8382 34.6575 48.9194 29.0765 48.9194C23.4955 48.9194 18.9712 49.8382 18.9712 50.9716C18.9712 52.105 23.4955 53.0238 29.0765 53.0238Z" fill="#3C2003"/>
</svg>
